<?xml version="1.0" encoding="UTF-8" standalone="no"?>
<!-- Generated by graphviz version 2.43.0 (0)
 -->

<!-- Title: calendar Pages: 1 -->

<svg
   width="500.02155pt"
   height="290.77045pt"
   viewBox="0 0 500.02154 290.77045"
   version="1.1"
   id="svg161"
   sodipodi:docname="calendar_primitives.svg"
   inkscape:version="1.2.2 (b0a8486541, 2022-12-01)"
   xmlns:inkscape="http://www.inkscape.org/namespaces/inkscape"
   xmlns:sodipodi="http://sodipodi.sourceforge.net/DTD/sodipodi-0.dtd"
   xmlns="http://www.w3.org/2000/svg"
   xmlns:svg="http://www.w3.org/2000/svg">
  <defs
     id="defs165" />
  <sodipodi:namedview
     id="namedview163"
     pagecolor="#ffffff"
     bordercolor="#000000"
     borderopacity="0.25"
     inkscape:showpageshadow="2"
     inkscape:pageopacity="0.0"
     inkscape:pagecheckerboard="0"
     inkscape:deskcolor="#d1d1d1"
     inkscape:document-units="pt"
     showgrid="false"
     inkscape:zoom="1.9681689"
     inkscape:cx="457.78591"
     inkscape:cy="184.18135"
     inkscape:window-width="1860"
     inkscape:window-height="1172"
     inkscape:window-x="0"
     inkscape:window-y="0"
     inkscape:window-maximized="1"
     inkscape:current-layer="graph0" />
  <g
     id="graph0"
     class="graph"
     transform="translate(-86.819925,313.47872)">
    <title
       id="title2">calendar</title>
    <!-- ms -->
    <!-- s -->
    <!-- ms&#45;&gt;s -->
    <!-- min -->
    <!-- s&#45;&gt;min -->
    <!-- hr -->
    <!-- min&#45;&gt;hr -->
    <!-- day -->
    <!-- hr&#45;&gt;day -->
    <path
       fill="#e8f4f8"
       stroke="#5a9abe"
       stroke-dasharray="5, 2"
       d="m 99.335174,-108.30792 c 0,0 474.999996,0 474.999996,0 6,0 12,-6 12,-12 0,0 0,-51 0,-51 0,-6 -6,-12 -12,-12 0,0 -474.999996,0 -474.999996,0 -6,0 -12,6 -12,12 0,0 0,51 0,51 0,6 6,12 12,12"
       id="path8" />
    <text
       text-anchor="middle"
       x="336.83517"
       y="-168.10793"
       font-family="Times, serif"
       font-size="14px"
       id="text10"
       style="font-size:16px"><tspan
         style="font-style:normal;font-variant:normal;font-weight:600;font-stretch:normal;font-size:16px;font-family:'Noto Sans';-inkscape-font-specification:'Noto Sans Semi-Bold'"
         id="tspan714">Civil Time</tspan></text>
    <path
       fill="#ffffff"
       stroke="#000000"
       d="m 181.33517,-152.30792 c 0,0 -74,0 -74,0 -6,0 -11.999996,6 -11.999996,12 0,0 0,12 0,12 0,6 5.999996,12 11.999996,12 0,0 74,0 74,0 6,0 12,-6 12,-12 0,0 0,-12 0,-12 0,-6 -6,-12 -12,-12"
       id="path29" />
    <text
       text-anchor="middle"
       x="144.33517"
       y="-130.60793"
       font-family="Times, serif"
       font-size="14px"
       id="text31"
       style="font-style:normal;font-variant:normal;font-weight:normal;font-stretch:normal;font-family:'Noto Sans';-inkscape-font-specification:'Noto Sans'">millisecond</text>
    <path
       fill="#ffffff"
       stroke="#000000"
       d="m 283.33517,-152.30792 c 0,0 -42,0 -42,0 -6,0 -12,6 -12,12 0,0 0,12 0,12 0,6 6,12 12,12 0,0 42,0 42,0 6,0 12,-6 12,-12 0,0 0,-12 0,-12 0,-6 -6,-12 -12,-12"
       id="path36" />
    <text
       text-anchor="middle"
       x="262.33517"
       y="-130.60793"
       font-family="Times, serif"
       font-size="14px"
       id="text38"
       style="font-style:normal;font-variant:normal;font-weight:normal;font-stretch:normal;font-family:'Noto Sans';-inkscape-font-specification:'Noto Sans'">second</text>
    <path
       fill="none"
       stroke="#000000"
       d="m 193.52517,-134.30792 c 8.49,0 17.27,0 25.58,0"
       id="path43" />
    <polygon
       fill="#000000"
       stroke="#000000"
       points="139.99,-78.5 149.99,-75 139.99,-71.5 "
       id="polygon45"
       transform="translate(79.335174,-59.307917)" />
    <path
       fill="#ffffff"
       stroke="#000000"
       d="m 386.33517,-152.30792 c 0,0 -43,0 -43,0 -6,0 -12,6 -12,12 0,0 0,12 0,12 0,6 6,12 12,12 0,0 43,0 43,0 6,0 12,-6 12,-12 0,0 0,-12 0,-12 0,-6 -6,-12 -12,-12"
       id="path50" />
    <text
       text-anchor="middle"
       x="364.83517"
       y="-130.60793"
       font-family="Times, serif"
       font-size="14px"
       id="text52"
       style="font-style:normal;font-variant:normal;font-weight:normal;font-stretch:normal;font-family:'Noto Sans';-inkscape-font-specification:'Noto Sans'">minute</text>
    <path
       fill="none"
       stroke="#000000"
       d="m 295.41517,-134.30792 c 8.08,0 16.89,0 25.42,0"
       id="path57" />
    <polygon
       fill="#000000"
       stroke="#000000"
       points="241.69,-78.5 251.69,-75 241.69,-71.5 "
       id="polygon59"
       transform="translate(79.335174,-59.307917)" />
    <path
       fill="#ffffff"
       stroke="#000000"
       d="m 476.33517,-152.30792 c 0,0 -30,0 -30,0 -6,0 -12,6 -12,12 0,0 0,12 0,12 0,6 6,12 12,12 0,0 30,0 30,0 6,0 12,-6 12,-12 0,0 0,-12 0,-12 0,-6 -6,-12 -12,-12"
       id="path64" />
    <text
       text-anchor="middle"
       x="461.33517"
       y="-130.60793"
       font-family="Times, serif"
       font-size="14px"
       id="text66"
       style="font-style:normal;font-variant:normal;font-weight:normal;font-stretch:normal;font-family:'Noto Sans';-inkscape-font-specification:'Noto Sans'">hour</text>
    <path
       fill="none"
       stroke="#000000"
       d="m 398.35517,-134.30792 c 8.35,0 17.38,0 25.9,0"
       id="path71" />
    <polygon
       fill="#000000"
       stroke="#000000"
       points="344.98,-78.5 354.98,-75 344.98,-71.5 "
       id="polygon73"
       transform="translate(79.335174,-59.307917)" />
    <path
       fill="#ffffff"
       stroke="#000000"
       d="m 566.33517,-152.30792 c 0,0 -30,0 -30,0 -6,0 -12,6 -12,12 0,0 0,12 0,12 0,6 6,12 12,12 0,0 30,0 30,0 6,0 12,-6 12,-12 0,0 0,-12 0,-12 0,-6 -6,-12 -12,-12"
       id="path78" />
    <text
       text-anchor="middle"
       x="551.33514"
       y="-130.60793"
       font-family="Times, serif"
       font-size="14px"
       id="text80"
       style="font-style:normal;font-variant:normal;font-weight:normal;font-stretch:normal;font-family:'Noto Sans';-inkscape-font-specification:'Noto Sans'">day</text>
    <path
       fill="none"
       stroke="#000000"
       d="m 488.73517,-134.30792 c 7.99,0 16.91,0 25.42,0"
       id="path85" />
    <polygon
       fill="#000000"
       stroke="#000000"
       points="434.92,-78.5 444.92,-75 434.92,-71.5 "
       id="polygon87"
       transform="translate(79.335174,-59.307917)" />
    <!-- month -->
    <!-- day&#45;&gt;month -->
    <!-- week -->
    <!-- day&#45;&gt;week -->
    <!-- quarter -->
    <!-- month&#45;&gt;quarter -->
    <!-- month&#45;&gt;week -->
    <!-- year -->
    <!-- quarter&#45;&gt;year -->
    <!-- isoyear -->
    <!-- week&#45;&gt;isoyear -->
    <g
       id="g2023">
      <path
         fill="#e8f4f8"
         stroke="#5a9abe"
         stroke-dasharray="5, 2"
         d="M 99.335174,-193.40756 H 574.33517 c 6,0 12,-6 12,-12 v -95.57116 c 0,-6 -6,-12 -12,-12 H 99.335174 c -6,0 -12,6 -12,12 v 95.57116 c 0,6 6,12 12,12"
         id="path335"
         sodipodi:nodetypes="csssssssc" />
      <text
         text-anchor="middle"
         x="336.83517"
         y="-297.77872"
         font-family="Times, serif"
         font-size="14px"
         id="text339"
         style="font-size:16px"><tspan
           style="font-style:normal;font-variant:normal;font-weight:600;font-stretch:normal;font-size:16px;font-family:'Noto Sans';-inkscape-font-specification:'Noto Sans Semi-Bold'"
           id="tspan337">Solar Time</tspan></text>
      <path
         fill="#ffffff"
         stroke="#000000"
         d="m 181.33517,-200.97872 c 0,0 -74,0 -74,0 -6,0 -11.999996,-6 -11.999996,-12 0,0 0,-12 0,-12 0,-6 5.999996,-12 11.999996,-12 0,0 74,0 74,0 6,0 12,6 12,12 0,0 0,12 0,12 0,6 -6,12 -12,12"
         id="path341" />
      <text
         text-anchor="middle"
         x="144.33517"
         y="-213.72871"
         font-family="Times, serif"
         font-size="14px"
         id="text343"
         style="font-style:normal;font-variant:normal;font-weight:normal;font-stretch:normal;font-family:'Noto Sans';-inkscape-font-specification:'Noto Sans'">millisecond</text>
      <path
         fill="#ffffff"
         stroke="#000000"
         d="m 269.53304,-245.97872 h -62.27273 c -6,0 -12,-6 -12,-12 v -12 c 0,-6 6,-12 12,-12 h 62.27273 c 6,0 12,6 12,12 v 12 c 0,6 -6,12 -12,12"
         id="path653"
         sodipodi:nodetypes="csssssssc" />
      <path
         fill="#ffffff"
         stroke="#000000"
         d="m 283.33517,-200.97872 c 0,0 -42,0 -42,0 -6,0 -12,-6 -12,-12 0,0 0,-12 0,-12 0,-6 6,-12 12,-12 0,0 42,0 42,0 6,0 12,6 12,12 0,0 0,12 0,12 0,6 -6,12 -12,12"
         id="path345" />
      <path
         fill="#ffffff"
         stroke="#000000"
         d="m 386.33517,-245.97872 h -60.09684 c -6,0 -12,-6 -12,-12 v -12 c 0,-6 6,-12 12,-12 h 60.09684 c 6,0 12,6 12,12 v 12 c 0,6 -6,12 -12,12"
         id="path661"
         sodipodi:nodetypes="csssssssc" />
      <text
         text-anchor="middle"
         x="262.33517"
         y="-213.72871"
         font-family="Times, serif"
         font-size="14px"
         id="text347"
         style="font-style:normal;font-variant:normal;font-weight:normal;font-stretch:normal;font-family:'Noto Sans';-inkscape-font-specification:'Noto Sans'">second</text>
      <path
         fill="none"
         stroke="#000000"
         d="m 193.52517,-218.97872 c 8.49,0 17.27,0 25.58,0"
         id="path349" />
      <polygon
         fill="#000000"
         stroke="#000000"
         points="139.99,-71.5 139.99,-78.5 149.99,-75 "
         id="polygon351"
         transform="matrix(1,0,0,-1,79.335174,-293.97872)" />
      <path
         fill="#ffffff"
         stroke="#000000"
         d="m 476.33517,-245.97872 c 0,0 -30,0 -30,0 -6,0 -12,-6 -12,-12 0,0 0,-12 0,-12 0,-6 6,-12 12,-12 0,0 30,0 30,0 6,0 12,6 12,12 0,0 0,12 0,12 0,6 -6,12 -12,12"
         id="path669" />
      <path
         fill="#ffffff"
         stroke="#000000"
         d="m 386.33517,-200.97872 c 0,0 -43,0 -43,0 -6,0 -12,-6 -12,-12 0,0 0,-12 0,-12 0,-6 6,-12 12,-12 0,0 43,0 43,0 6,0 12,6 12,12 0,0 0,12 0,12 0,6 -6,12 -12,12"
         id="path353" />
      <text
         text-anchor="middle"
         x="364.83517"
         y="-213.88972"
         font-family="Times, serif"
         font-size="14px"
         id="text355"
         style="font-style:normal;font-variant:normal;font-weight:normal;font-stretch:normal;font-family:'Noto Sans';-inkscape-font-specification:'Noto Sans'">minute</text>
      <path
         fill="none"
         stroke="#000000"
         d="m 295.41517,-218.97872 c 8.08,0 16.89,0 25.42,0"
         id="path357" />
      <polygon
         fill="#000000"
         stroke="#000000"
         points="241.69,-71.5 241.69,-78.5 251.69,-75 "
         id="polygon359"
         transform="matrix(1,0,0,-1,79.335174,-293.97872)" />
      <path
         fill="#ffffff"
         stroke="#000000"
         d="m 476.33517,-200.97872 c 0,0 -30,0 -30,0 -6,0 -12,-6 -12,-12 0,0 0,-12 0,-12 0,-6 6,-12 12,-12 0,0 30,0 30,0 6,0 12,6 12,12 0,0 0,12 0,12 0,6 -6,12 -12,12"
         id="path361" />
      <text
         text-anchor="middle"
         x="461.33517"
         y="-213.72871"
         font-family="Times, serif"
         font-size="14px"
         id="text363"
         style="font-style:normal;font-variant:normal;font-weight:normal;font-stretch:normal;font-family:'Noto Sans';-inkscape-font-specification:'Noto Sans'">hour</text>
      <path
         fill="none"
         stroke="#000000"
         d="m 398.35517,-218.97872 c 8.35,0 17.38,0 25.9,0"
         id="path365" />
      <polygon
         fill="#000000"
         stroke="#000000"
         points="344.98,-71.5 344.98,-78.5 354.98,-75 "
         id="polygon367"
         transform="matrix(1,0,0,-1,79.335174,-293.97872)" />
      <path
         fill="#ffffff"
         stroke="#000000"
         d="m 566.33517,-223.47872 c 0,0 -30,0 -30,0 -6,0 -12,-6 -12,-12 0,0 0,-12 0,-12 0,-6 6,-12 12,-12 0,0 30,0 30,0 6,0 12,6 12,12 0,0 0,12 0,12 0,6 -6,12 -12,12"
         id="path369" />
      <text
         text-anchor="middle"
         x="551.33514"
         y="-237.89871"
         font-family="Times, serif"
         font-size="14px"
         id="text371"
         style="font-style:normal;font-variant:normal;font-weight:normal;font-stretch:normal;font-family:'Noto Sans';-inkscape-font-specification:'Noto Sans'">day</text>
      <g
         id="g1415"
         transform="matrix(0.90630779,-0.42261826,-0.42261826,-0.90630779,-64.107575,-253.17058)">
        <path
           fill="none"
           stroke="#000000"
           d="m 486.28009,-264.34251 27.87508,0.36379"
           id="path373"
           sodipodi:nodetypes="cc" />
        <polygon
           fill="#000000"
           stroke="#000000"
           points="434.92,-71.5 434.92,-78.5 444.92,-75 "
           id="polygon375"
           transform="translate(79.335174,-188.97872)" />
      </g>
      <text
         text-anchor="middle"
         x="238.66966"
         y="-258.72873"
         font-family="Times, serif"
         font-size="14px"
         id="text655"
         style="font-style:normal;font-variant:normal;font-weight:normal;font-stretch:normal;font-family:'Noto Sans';-inkscape-font-specification:'Noto Sans'">arcsecond</text>
      <text
         text-anchor="middle"
         x="356.32175"
         y="-258.88971"
         font-family="Times, serif"
         font-size="14px"
         id="text663"
         style="font-style:normal;font-variant:normal;font-weight:normal;font-stretch:normal;font-family:'Noto Sans';-inkscape-font-specification:'Noto Sans'">arcminute</text>
      <path
         fill="none"
         stroke="#000000"
         d="m 281.91517,-263.97872 c 8.08,0 16.89,0 25.42,0"
         id="path665" />
      <polygon
         fill="#000000"
         stroke="#000000"
         points="241.69,-71.5 241.69,-78.5 251.69,-75 "
         id="polygon667"
         transform="matrix(1,0,0,-1,61.335174,-338.97872)" />
      <text
         text-anchor="middle"
         x="461.33517"
         y="-260.33871"
         font-family="Times, serif"
         font-size="14px"
         id="text671"
         style="font-style:normal;font-variant:normal;font-weight:normal;font-stretch:normal;font-family:'Noto Sans';-inkscape-font-specification:'Noto Sans'">angle</text>
      <path
         fill="none"
         stroke="#000000"
         d="m 398.35517,-263.97872 c 8.35,0 17.38,0 25.9,0"
         id="path673" />
      <polygon
         fill="#000000"
         stroke="#000000"
         points="344.98,-78.5 354.98,-75 344.98,-71.5 "
         id="polygon675"
         transform="matrix(1,0,0,-1,79.335174,-338.97872)" />
      <g
         id="g1419"
         transform="matrix(0.90630779,0.42261826,0.42261826,-0.90630779,139.99906,-667.49495)">
        <path
           fill="none"
           stroke="#000000"
           d="m 486.39379,-218.80065 27.76138,-0.17807"
           id="path677"
           sodipodi:nodetypes="cc" />
        <polygon
           fill="#000000"
           stroke="#000000"
           points="434.92,-78.5 444.92,-75 434.92,-71.5 "
           id="polygon679"
           transform="translate(79.335174,-143.97872)" />
      </g>
    </g>
    <path
       fill="#e8f4f8"
       stroke="#5a9abe"
       stroke-dasharray="5, 2"
       d="m 99.335174,-23.208269 c 0,0 474.999996,0 474.999996,0 6,0 12,-6 12,-12 0,0 0,-51.000002 0,-51.000002 0,-6 -6,-12 -12,-12 0,0 -474.999996,0 -474.999996,0 -6,0 -12,6 -12,12 0,0 0,51.000002 0,51.000002 0,6 6,12 12,12"
       id="path1569" />
    <text
       text-anchor="middle"
       x="336.83517"
       y="-83.00827"
       font-family="Times, serif"
       font-size="14px"
       id="text1573"
       style="font-size:16px"><tspan
         style="font-style:normal;font-variant:normal;font-weight:600;font-stretch:normal;font-size:16px;font-family:'Noto Sans';-inkscape-font-specification:'Noto Sans Semi-Bold'"
         id="tspan1571">Lunar Time</tspan></text>
    <g
       id="g2143"
       transform="translate(-22.99629)">
      <g
         id="g1781"
         transform="translate(22.99629,-28.436733)">
        <path
           fill="#ffffff"
           stroke="#000000"
           d="m 283.33517,-38.771538 c 0,0 -42,0 -42,0 -6,0 -12,6 -12,12 0,0 0,12 0,12 0,6.0000014 6,12.0000014 12,12.0000014 0,0 42,0 42,0 6,0 12,-6 12,-12.0000014 0,0 0,-12 0,-12 0,-6 -6,-12 -12,-12"
           id="path1579" />
        <text
           text-anchor="middle"
           x="262.09717"
           y="-17.131536"
           font-family="Times, serif"
           font-size="14px"
           id="text1581"
           style="font-style:normal;font-variant:normal;font-weight:normal;font-stretch:normal;font-family:'Noto Sans';-inkscape-font-specification:'Noto Sans'">phase</text>
      </g>
      <g
         id="g1777"
         transform="translate(22.99629,-28.436733)">
        <path
           fill="#ffffff"
           stroke="#000000"
           d="m 386.33517,-38.771538 c 0,0 -43,0 -43,0 -6,0 -12,6 -12,12 0,0 0,12 0,12 0,6.0000014 6,12.0000014 12,12.0000014 0,0 43,0 43,0 6,0 12,-6 12,-12.0000014 0,0 0,-12 0,-12 0,-6 -6,-12 -12,-12"
           id="path1587" />
        <text
           text-anchor="middle"
           x="364.83517"
           y="-17.071541"
           font-family="Times, serif"
           font-size="14px"
           id="text1589"
           style="font-style:normal;font-variant:normal;font-weight:normal;font-stretch:normal;font-family:'Noto Sans';-inkscape-font-specification:'Noto Sans'">month</text>
      </g>
      <g
         id="g1855"
         transform="translate(22.99629,-26.569095)">
        <path
           fill="none"
           stroke="#000000"
           d="m 295.41517,-22.639176 c 8.08,0 16.89,0 25.42,0"
           id="path1849" />
        <polygon
           fill="#000000"
           stroke="#000000"
           points="241.69,-71.5 241.69,-78.5 251.69,-75 "
           id="polygon1851"
           transform="translate(79.335174,52.360825)" />
      </g>
    </g>
    <path
       fill="none"
       stroke="#000000"
       d="m 262.33517,-152.67417 v -36.53355"
       id="path2220"
       sodipodi:nodetypes="cc"
       style="stroke-dasharray:6, 2;stroke-dashoffset:0" />
    <polygon
       fill="#000000"
       stroke="#000000"
       points="241.69,-71.5 241.69,-78.5 251.69,-75 "
       id="polygon2222"
       transform="rotate(-90,194.81372,-142.52145)" />
    <path
       fill="none"
       stroke="#000000"
       d="m 262.33517,-115.93691 v 36.92244"
       id="path2232"
       sodipodi:nodetypes="cc"
       style="stroke-dasharray:6, 2;stroke-dashoffset:0" />
    <polygon
       fill="#000000"
       stroke="#000000"
       points="241.69,-78.5 251.69,-75 241.69,-71.5 "
       id="polygon2234"
       transform="matrix(0,1,1,0,337.33517,-320.51446)" />
    <text
       xml:space="preserve"
       style="font-size:12px;line-height:1;font-family:Excalifont;-inkscape-font-specification:Excalifont;letter-spacing:1.9725px;fill:#ffffff;stroke-width:0.807878;stroke-linecap:round;stroke-linejoin:round;stroke-dasharray:6, 2;stroke-dashoffset:0"
       x="481.7041"
       y="-83.370705"
       id="text3126"><tspan
         sodipodi:role="line"
         id="tspan3124"
         style="font-style:normal;font-variant:normal;font-weight:normal;font-stretch:normal;font-size:12px;font-family:'Noto Sans Mono';-inkscape-font-specification:'Noto Sans Mono';fill:#000000;fill-opacity:1;stroke-width:0.807874"
         x="481.7041"
         y="-83.370705">mt_loc_unit</tspan></text>
    <text
       xml:space="preserve"
       style="font-size:12px;line-height:1;font-family:Excalifont;-inkscape-font-specification:Excalifont;letter-spacing:1.9725px;fill:#ffffff;stroke-width:0.807878;stroke-linecap:round;stroke-linejoin:round;stroke-dasharray:6, 2;stroke-dashoffset:0"
       x="481.7041"
       y="-297.8707"
       id="text3971"><tspan
         sodipodi:role="line"
         id="tspan3969"
         style="font-style:normal;font-variant:normal;font-weight:normal;font-stretch:normal;font-size:12px;font-family:'Noto Sans Mono';-inkscape-font-specification:'Noto Sans Mono';fill:#000000;fill-opacity:1;stroke-width:0.807874"
         x="481.7041"
         y="-297.8707">mt_loc_unit</tspan></text>
    <text
       xml:space="preserve"
       style="font-size:12px;line-height:1;font-family:Excalifont;-inkscape-font-specification:Excalifont;letter-spacing:1.9725px;fill:#ffffff;stroke-width:0.807878;stroke-linecap:round;stroke-linejoin:round;stroke-dasharray:6, 2;stroke-dashoffset:0"
       x="481.7041"
       y="-168.8707"
       id="text3975"><tspan
         sodipodi:role="line"
         id="tspan3973"
         style="font-style:normal;font-variant:normal;font-weight:normal;font-stretch:normal;font-size:12px;font-family:'Noto Sans Mono';-inkscape-font-specification:'Noto Sans Mono';fill:#000000;fill-opacity:1;stroke-width:0.807874"
         x="481.7041"
         y="-168.8707">mt_tz_unit</tspan></text>
  </g>
</svg>
