<?xml version="1.0" encoding="UTF-8" standalone="no"?>
<!-- Generated by graphviz version 2.43.0 (0)
 -->

<!-- Title: calendar Pages: 1 -->

<svg
   width="802.75427pt"
   height="159pt"
   viewBox="0 0 802.75427 159"
   version="1.1"
   id="svg161"
   sodipodi:docname="calendar_relationships.svg"
   inkscape:version="1.2.2 (b0a8486541, 2022-12-01)"
   xmlns:inkscape="http://www.inkscape.org/namespaces/inkscape"
   xmlns:sodipodi="http://sodipodi.sourceforge.net/DTD/sodipodi-0.dtd"
   xmlns="http://www.w3.org/2000/svg"
   xmlns:svg="http://www.w3.org/2000/svg">
  <defs
     id="defs165" />
  <sodipodi:namedview
     id="namedview163"
     pagecolor="#ffffff"
     bordercolor="#000000"
     borderopacity="0.25"
     inkscape:showpageshadow="2"
     inkscape:pageopacity="0.0"
     inkscape:pagecheckerboard="0"
     inkscape:deskcolor="#d1d1d1"
     inkscape:document-units="pt"
     showgrid="false"
     inkscape:zoom="0.66122672"
     inkscape:cx="406.81961"
     inkscape:cy="475.63111"
     inkscape:window-width="1860"
     inkscape:window-height="1172"
     inkscape:window-x="0"
     inkscape:window-y="0"
     inkscape:window-maximized="1"
     inkscape:current-layer="graph0" />
  <g
     id="graph0"
     class="graph"
     transform="translate(-86.82775,166.5)">
    <title
       id="title2">calendar</title>
    <path
       fill="#e8f4f8"
       stroke="#5a9abe"
       stroke-dasharray="5, 2"
       d="m 99.335174,-49 c 0,0 474.999996,0 474.999996,0 6,0 12,-6 12,-12 0,0 0,-51 0,-51 0,-6 -6,-12 -12,-12 0,0 -474.999996,0 -474.999996,0 -6,0 -12,6 -12,12 0,0 0,51 0,51 0,6 6,12 12,12"
       id="path8" />
    <text
       text-anchor="middle"
       x="336.83517"
       y="-108.8"
       font-family="Times, serif"
       font-size="14px"
       id="text10"
       style="font-size:16px"><tspan
         style="font-style:normal;font-variant:normal;font-weight:600;font-stretch:normal;font-size:16px;font-family:'Noto Sans';-inkscape-font-specification:'Noto Sans Semi-Bold'"
         id="tspan714">Civil Time</tspan></text>
    <path
       fill="#eaf7ea"
       stroke="#4a9e4a"
       d="M 639.86304,-91 H 877.082 c 6,0 12,-6 12,-12 v -51 c 0,-6 -6,-12 -12,-12 H 637 c -6,0 -12,6 -12,12 v 51 c 0,6 8.86304,12 14.86304,12"
       id="path15"
       sodipodi:nodetypes="csssssssc" />
    <text
       text-anchor="middle"
       x="756.80298"
       y="-150.8"
       font-family="Times, serif"
       font-size="14px"
       id="text17"
       style="font-size:16px"><tspan
         style="font-style:normal;font-variant:normal;font-weight:600;font-stretch:normal;font-size:16px;font-family:'Noto Sans';-inkscape-font-specification:'Noto Sans Semi-Bold'"
         id="tspan716">Gregorian Calendar</tspan></text>
    <path
       fill="#fef6e4"
       stroke="#c8972a"
       d="m 637,-8 h 240.082 c 6,0 12,-6 12,-12 v -51 c 0,-6 -6,-12 -12,-12 H 637 c -6,0 -12,6 -12,12 v 51 c 0,6 6,12 12,12"
       id="path22"
       sodipodi:nodetypes="csssssssc" />
    <text
       text-anchor="middle"
       x="756.901"
       y="-67.800003"
       font-family="Times, serif"
       font-size="14px"
       id="text24"
       style="font-size:16px"><tspan
         style="font-style:normal;font-variant:normal;font-weight:600;font-stretch:normal;font-family:'Noto Sans';-inkscape-font-specification:'Noto Sans Semi-Bold'"
         id="tspan720">ISO Week Calendar</tspan></text>
    <!-- ms -->
    <path
       fill="#ffffff"
       stroke="#000000"
       d="m 181.33517,-93 c 0,0 -74,0 -74,0 -6,0 -11.999996,6 -11.999996,12 0,0 0,12 0,12 0,6 5.999996,12 11.999996,12 0,0 74,0 74,0 6,0 12,-6 12,-12 0,0 0,-12 0,-12 0,-6 -6,-12 -12,-12"
       id="path29" />
    <text
       text-anchor="middle"
       x="144.33517"
       y="-71.300003"
       font-family="Times, serif"
       font-size="14px"
       id="text31"
       style="font-style:normal;font-variant:normal;font-weight:normal;font-stretch:normal;font-family:'Noto Sans';-inkscape-font-specification:'Noto Sans'">millisecond</text>
    <!-- s -->
    <path
       fill="#ffffff"
       stroke="#000000"
       d="m 283.33517,-93 c 0,0 -42,0 -42,0 -6,0 -12,6 -12,12 0,0 0,12 0,12 0,6 6,12 12,12 0,0 42,0 42,0 6,0 12,-6 12,-12 0,0 0,-12 0,-12 0,-6 -6,-12 -12,-12"
       id="path36" />
    <text
       text-anchor="middle"
       x="262.33517"
       y="-71.300003"
       font-family="Times, serif"
       font-size="14px"
       id="text38"
       style="font-style:normal;font-variant:normal;font-weight:normal;font-stretch:normal;font-family:'Noto Sans';-inkscape-font-specification:'Noto Sans'">second</text>
    <!-- ms&#45;&gt;s -->
    <path
       fill="none"
       stroke="#000000"
       d="m 193.52517,-75 c 8.49,0 17.27,0 25.58,0"
       id="path43" />
    <polygon
       fill="#000000"
       stroke="#000000"
       points="139.99,-71.5 139.99,-78.5 149.99,-75 "
       id="polygon45"
       transform="translate(79.335174)" />
    <!-- min -->
    <path
       fill="#ffffff"
       stroke="#000000"
       d="m 386.33517,-93 c 0,0 -43,0 -43,0 -6,0 -12,6 -12,12 0,0 0,12 0,12 0,6 6,12 12,12 0,0 43,0 43,0 6,0 12,-6 12,-12 0,0 0,-12 0,-12 0,-6 -6,-12 -12,-12"
       id="path50" />
    <text
       text-anchor="middle"
       x="364.83517"
       y="-71.300003"
       font-family="Times, serif"
       font-size="14px"
       id="text52"
       style="font-style:normal;font-variant:normal;font-weight:normal;font-stretch:normal;font-family:'Noto Sans';-inkscape-font-specification:'Noto Sans'">minute</text>
    <!-- s&#45;&gt;min -->
    <path
       fill="none"
       stroke="#000000"
       d="m 295.41517,-75 c 8.08,0 16.89,0 25.42,0"
       id="path57" />
    <polygon
       fill="#000000"
       stroke="#000000"
       points="241.69,-71.5 241.69,-78.5 251.69,-75 "
       id="polygon59"
       transform="translate(79.335174)" />
    <!-- hr -->
    <path
       fill="#ffffff"
       stroke="#000000"
       d="m 476.33517,-93 c 0,0 -30,0 -30,0 -6,0 -12,6 -12,12 0,0 0,12 0,12 0,6 6,12 12,12 0,0 30,0 30,0 6,0 12,-6 12,-12 0,0 0,-12 0,-12 0,-6 -6,-12 -12,-12"
       id="path64" />
    <text
       text-anchor="middle"
       x="461.33517"
       y="-71.300003"
       font-family="Times, serif"
       font-size="14px"
       id="text66"
       style="font-style:normal;font-variant:normal;font-weight:normal;font-stretch:normal;font-family:'Noto Sans';-inkscape-font-specification:'Noto Sans'">hour</text>
    <!-- min&#45;&gt;hr -->
    <path
       fill="none"
       stroke="#000000"
       d="m 398.35517,-75 c 8.35,0 17.38,0 25.9,0"
       id="path71" />
    <polygon
       fill="#000000"
       stroke="#000000"
       points="344.98,-71.5 344.98,-78.5 354.98,-75 "
       id="polygon73"
       transform="translate(79.335174)" />
    <!-- day -->
    <path
       fill="#ffffff"
       stroke="#000000"
       d="m 566.33517,-93 c 0,0 -30,0 -30,0 -6,0 -12,6 -12,12 0,0 0,12 0,12 0,6 6,12 12,12 0,0 30,0 30,0 6,0 12,-6 12,-12 0,0 0,-12 0,-12 0,-6 -6,-12 -12,-12"
       id="path78" />
    <text
       text-anchor="middle"
       x="551.33514"
       y="-71.300003"
       font-family="Times, serif"
       font-size="14px"
       id="text80"
       style="font-style:normal;font-variant:normal;font-weight:normal;font-stretch:normal;font-family:'Noto Sans';-inkscape-font-specification:'Noto Sans'">day</text>
    <!-- hr&#45;&gt;day -->
    <path
       fill="none"
       stroke="#000000"
       d="m 488.73517,-75 c 7.99,0 16.91,0 25.42,0"
       id="path85" />
    <polygon
       fill="#000000"
       stroke="#000000"
       points="434.92,-71.5 434.92,-78.5 444.92,-75 "
       id="polygon87"
       transform="translate(79.335174)" />
    <!-- month -->
    <!-- day&#45;&gt;month -->
    <!-- week -->
    <path
       fill="#ffffff"
       stroke="#000000"
       d="m 673.53651,-52 c 0,0 -30,0 -30,0 -6,0 -12,6 -12,12 0,0 0,12 0,12 0,6 6,12 12,12 0,0 30,0 30,0 6,0 12,-6 12,-12 0,0 0,-12 0,-12 0,-6 -6,-12 -12,-12"
       id="path106" />
    <text
       text-anchor="middle"
       x="658.5365"
       y="-30.299999"
       font-family="Times, serif"
       font-size="14px"
       id="text108"
       style="font-style:normal;font-variant:normal;font-weight:normal;font-stretch:normal;font-family:'Noto Sans';-inkscape-font-specification:'Noto Sans'">week</text>
    <!-- day&#45;&gt;week -->
    <!-- quarter -->
    <!-- month&#45;&gt;quarter -->
    <!-- month&#45;&gt;week -->
    <!-- year -->
    <!-- quarter&#45;&gt;year -->
    <path
       fill="#ffffff"
       stroke="#000000"
       d="m 681.53651,-135 c 0,0 -38,0 -38,0 -6,0 -12,6 -12,12 0,0 0,12 0,12 0,6 6,12 12,12 0,0 38,0 38,0 6,0 12,-6 12,-12 0,0 0,-12 0,-12 0,-6 -6,-12 -12,-12"
       id="path92" />
    <text
       text-anchor="middle"
       x="662.5365"
       y="-113.3"
       font-family="Times, serif"
       font-size="14px"
       id="text94"
       style="font-style:normal;font-variant:normal;font-weight:normal;font-stretch:normal;font-family:'Noto Sans';-inkscape-font-specification:'Noto Sans'">month</text>
    <path
       fill="#ffffff"
       stroke="#000000"
       d="m 784.541,-135 c 0,0 -47,0 -47,0 -6,0 -12,6 -12,12 0,0 0,12 0,12 0,6 6,12 12,12 0,0 47,0 47,0 6,0 12,-6 12,-12 0,0 0,-12 0,-12 0,-6 -6,-12 -12,-12"
       id="path120" />
    <text
       text-anchor="middle"
       x="761.04102"
       y="-113.3"
       font-family="Times, serif"
       font-size="14px"
       id="text122"
       style="font-style:normal;font-variant:normal;font-weight:normal;font-stretch:normal;font-family:'Noto Sans';-inkscape-font-specification:'Noto Sans'">quarter</text>
    <path
       fill="#ffffff"
       stroke="#000000"
       d="m 870.54549,-135 c 0,0 -30,0 -30,0 -6,0 -12,6 -12,12 0,0 0,12 0,12 0,6 6,12 12,12 0,0 30,0 30,0 6,0 12,-6 12,-12 0,0 0,-12 0,-12 0,-6 -6,-12 -12,-12"
       id="path134" />
    <text
       text-anchor="middle"
       x="855.54547"
       y="-113.3"
       font-family="Times, serif"
       font-size="14px"
       id="text136"
       style="font-style:normal;font-variant:normal;font-weight:normal;font-stretch:normal;font-family:'Noto Sans';-inkscape-font-specification:'Noto Sans'">year</text>
    <path
       fill="none"
       stroke="#000000"
       d="M 796.46715,-117 H 817.08"
       id="path141"
       sodipodi:nodetypes="cc" />
    <polygon
       fill="#000000"
       stroke="#000000"
       points="818.73,-120.5 828.73,-117 818.73,-113.5 "
       id="polygon143"
       transform="translate(-1.5)" />
    <!-- isoyear -->
    <path
       fill="#ffffff"
       stroke="#000000"
       d="m 871,-52 c 0,0 -55,0 -55,0 -6,0 -12,6 -12,12 0,0 0,12 0,12 0,6 6,12 12,12 0,0 55,0 55,0 6,0 12,-6 12,-12 0,0 0,-12 0,-12 0,-6 -6,-12 -12,-12"
       id="path148" />
    <text
       text-anchor="middle"
       x="843.5"
       y="-30.299999"
       font-family="Times, serif"
       font-size="14px"
       id="text150"
       style="font-style:normal;font-variant:normal;font-weight:normal;font-stretch:normal;font-family:'Noto Sans';-inkscape-font-specification:'Noto Sans'">ISO year</text>
    <!-- week&#45;&gt;isoyear -->
    <path
       fill="none"
       stroke="#000000"
       d="m 693.70684,-117 h 19.98247"
       id="path648"
       sodipodi:nodetypes="cc" />
    <polygon
       fill="#000000"
       stroke="#000000"
       points="818.73,-120.5 828.73,-117 818.73,-113.5 "
       id="polygon650"
       transform="translate(-104.89069)" />
    <path
       fill="none"
       stroke="#000000"
       d="M 685.48757,-34 H 791.96893"
       id="path682"
       sodipodi:nodetypes="cc" />
    <polygon
       fill="#000000"
       stroke="#000000"
       points="818.73,-113.5 818.73,-120.5 828.73,-117 "
       id="polygon684"
       transform="translate(-26.611069,83)" />
    <path
       fill="none"
       stroke="#000000"
       d="m 575.47253,-88.122772 c 5.91,-1.73 39.52595,-13.519048 45.58595,-15.299048"
       id="path99"
       sodipodi:nodetypes="cc" />
    <polygon
       fill="#000000"
       stroke="#000000"
       points="524.34,-93.71 534.92,-93.17 526.31,-87 "
       id="polygon101"
       transform="translate(95.888478,-13.111822)" />
    <path
       fill="none"
       stroke="#000000"
       d="m 575.47253,-61.87723 c 5.91,1.73 39.52595,13.51905 45.58595,15.29905"
       id="path690"
       sodipodi:nodetypes="cc" />
    <polygon
       fill="#000000"
       stroke="#000000"
       points="524.34,-93.71 534.92,-93.17 526.31,-87 "
       id="polygon692"
       transform="matrix(1,0,0,-1,95.888478,-136.88818)" />
  </g>
</svg>
